<svg width="24" height="24" viewBox="0 0 24 24" fill="none" xmlns="http://www.w3.org/2000/svg">
<path d="M12.25 1.64844C18.365 1.64844 23.3221 5.512 23.3223 10.2793C23.3223 15.0457 18.3651 18.9102 12.25 18.9102C11.6411 18.9105 11.0326 18.8715 10.4287 18.7939L5.78027 21.834C5.25225 22.1132 5.06604 22.0826 5.2832 21.3984L6.22363 17.5195C3.18669 15.9799 1.17773 13.312 1.17773 10.2793C1.17794 5.51307 6.13506 1.64847 12.25 1.64844ZM19.8486 7.83789C19.911 7.87877 19.9726 7.9191 20.0322 7.96094C20.0306 7.95925 20.0299 7.95674 20.0283 7.95508C19.9775 7.90254 19.9157 7.86365 19.8486 7.83789Z" fill="black" fill-opacity="0.9"/>
</svg>
